<svg width="280" height="280" viewBox="0 0 280 280" fill="none" xmlns="http://www.w3.org/2000/svg">
<circle cx="140" cy="140" r="140" fill="white"/>
<path d="M188.672 85.0078V98.6309L179.59 107.713H79.082L70 98.6309V85.0078C70 77.4694 76.0847 71.082 83.623 71.082H175.049C182.587 71.082 188.672 77.4694 188.672 85.0078Z" fill="#4D5A68"/>
<path d="M188.672 85.0078V98.6309L179.59 107.713H129.336V71.082H175.049C182.587 71.082 188.672 77.4694 188.672 85.0078Z" fill="#304653"/>
<path d="M188.672 98.6309V203.074C188.672 210.612 182.587 217 175.049 217H83.623C76.0847 217 70 210.612 70 203.074V98.6309H188.672Z" fill="#FFCA42"/>
<path d="M188.672 98.6309V203.074C188.672 210.612 182.587 217 175.049 217H129.336V98.6309H188.672Z" fill="#FFAF3E"/>
<path d="M92.7051 89.5488C90.1951 89.5488 88.1641 87.5178 88.1641 85.0078V66.541C88.1641 64.031 90.1951 62 92.7051 62C95.215 62 97.2461 64.031 97.2461 66.541V85.0078C97.2461 87.5178 95.215 89.5488 92.7051 89.5488Z" fill="#CAD4E4"/>
<path d="M111.172 89.5488C108.662 89.5488 106.631 87.5178 106.631 85.0078V66.541C106.631 64.031 108.662 62 111.172 62C113.682 62 115.713 64.031 115.713 66.541V85.0078C115.713 87.5178 113.682 89.5488 111.172 89.5488Z" fill="#CAD4E4"/>
<path d="M133.877 66.541V85.0078C133.877 87.5505 131.879 89.5488 129.336 89.5488C126.793 89.5488 124.795 87.5505 124.795 85.0078V66.541C124.795 63.9977 126.793 62 129.336 62C131.879 62 133.877 63.9977 133.877 66.541Z" fill="#CAD4E4"/>
<path d="M147.803 89.5488C145.293 89.5488 143.262 87.5178 143.262 85.0078V66.541C143.262 64.031 145.293 62 147.803 62C150.313 62 152.344 64.031 152.344 66.541V85.0078C152.344 87.5178 150.313 89.5488 147.803 89.5488Z" fill="#ADB5CC"/>
<path d="M165.967 89.5488C163.457 89.5488 161.426 87.5178 161.426 85.0078V66.541C161.426 64.031 163.457 62 165.967 62C168.477 62 170.508 64.031 170.508 66.541V85.0078C170.508 87.5178 168.477 89.5488 165.967 89.5488Z" fill="#ADB5CC"/>
<path d="M133.877 184.91C133.877 187.453 131.879 189.451 129.336 189.451H92.7051C90.1618 189.451 88.1641 187.453 88.1641 184.91C88.1641 182.367 90.1618 180.369 92.7051 180.369H129.336C131.879 180.369 133.877 182.367 133.877 184.91Z" fill="#DD864D"/>
<path d="M120.254 162.205H92.7051C90.1951 162.205 88.1641 160.174 88.1641 157.664C88.1641 155.154 90.1951 153.123 92.7051 153.123H120.254C122.764 153.123 124.795 155.154 124.795 157.664C124.795 160.174 122.764 162.205 120.254 162.205Z" fill="#DD864D"/>
<path d="M111.172 134.959H92.7051C90.1951 134.959 88.1641 132.928 88.1641 130.418C88.1641 127.908 90.1951 125.877 92.7051 125.877H111.172C113.682 125.877 115.713 127.908 115.713 130.418C115.713 132.928 113.682 134.959 111.172 134.959Z" fill="#DD864D"/>
<path d="M194.101 160.136C195.635 134.519 213.49 119.891 214.534 118.422C216.585 116.304 216.094 112.809 213.537 111.333L207.88 108.066C205.706 106.811 204.963 104.037 206.218 101.863C207.473 99.6898 210.247 98.9463 212.421 100.201L218.078 103.468C225.75 107.897 227.225 118.358 221.059 124.734C219.59 126.784 204.518 138.073 203.168 160.68C203.018 163.184 200.867 165.091 198.362 164.941C195.837 164.783 193.955 162.622 194.101 160.136Z" fill="#304653"/>
<path d="M223.167 90.6747L216.355 102.473L204.578 106.16L195.454 100.892L192.759 88.8492L199.571 77.0513C203.34 70.5232 211.652 68.296 218.18 72.065C224.708 75.834 226.936 84.1465 223.167 90.6747Z" fill="#4D5A68"/>
<path d="M204.578 106.16L200.016 103.526L218.18 72.0653C224.708 75.8344 226.936 84.1465 223.167 90.6747L216.355 102.473L204.578 106.16Z" fill="#304653"/>
<path d="M173.7 177.262L149.317 163.185C150.605 149.876 155.425 137.348 163.707 126.818C165.111 125.112 189.526 93.904 190.671 92.4672L192.759 88.8495L216.355 102.473L214.311 106.012C214.175 106.248 198.568 145.268 197.999 146.617C193.021 159.054 184.582 169.493 173.7 177.262Z" fill="#E9336D"/>
<path d="M173.7 177.262L161.508 170.224L204.557 95.661L216.355 102.473L214.312 106.012C214.175 106.248 198.569 145.268 197.999 146.617C193.021 159.054 184.582 169.493 173.7 177.262Z" fill="#B12E65"/>
<path d="M166.504 161.572C161.627 158.757 155.758 158.933 151.012 162.066L149.317 163.185C149.268 163.996 149.062 164.717 149.014 165.527L147.858 184.785L143.862 191.707C142.591 193.909 143.322 196.638 145.524 197.91C147.726 199.181 150.456 198.45 151.727 196.248L155.723 189.326L171.823 178.696C172.501 178.249 173.021 177.711 173.699 177.263L173.821 175.236C174.162 169.559 171.38 164.387 166.504 161.572Z" fill="#CAD4E4"/>
<path d="M166.504 161.572L154.606 182.179L145.524 197.91C147.726 199.181 150.456 198.449 151.727 196.248L155.723 189.326L171.823 178.696C172.501 178.248 173.021 177.71 173.699 177.262L173.821 175.235C174.162 169.559 171.38 164.387 166.504 161.572Z" fill="#ADB5CC"/>
<path d="M129.336 89.5488V62C131.879 62 133.877 63.9977 133.877 66.541V85.0078C133.877 87.5505 131.879 89.5488 129.336 89.5488Z" fill="#ADB5CC"/>
<path d="M133.877 184.91C133.877 187.453 131.879 189.451 129.336 189.451V180.369C131.879 180.369 133.877 182.367 133.877 184.91Z" fill="#D36836"/>
</svg>
